#!Matlab matrix to amc conversion
:FULLY-SPECIFIED
:DEGREES
1
root 9.287220 16.950000 -34.276200 0.000000 0.000000 0.000000
lowerback 0.000000 0.000000 0.000000
upperback 0.000000 0.000000 0.000000
thorax 0.000000 0.000000 0.000000
lowerneck -16.000000 0.000000 0.000000
upperneck 21.000000 0.000000 0.000000
head 11.000000 0.000000 0.000000
rclavicle 0.000000 0.000000
rhumerus 0.000000 0.000000 0.000000
rradius 0.000000
rwrist 0.000000
rhand 0.000000 0.000000
rfingers 0.000000
rthumb 0.000000 0.000000
lclavicle 0.000000 0.000000
lhumerus 0.000000 0.000000 0.000000
lradius 0.000000
lwrist 0.000000
lhand 0.000000 0.000000
lfingers 0.000000
lthumb 0.000000 0.000000
rfemur 0.000000 0.000000 21.000000
rtibia 0.000000
rfoot 0.000000 0.000000
rtoes 0.000000
lfemur 0.000000 0.000000 -21.000000
ltibia 0.000000
lfoot 0.000000 0.000000
ltoes 0.000000
2
root 9.287220 16.950000 -34.276200 1.326867 1.634016 0.124430
lowerback -0.720791 0.424712 -2.374842
upperback -1.775543 0.518336 0.754473
thorax -1.415536 0.316931 2.081873
lowerneck -15.378589 -0.345640 -1.673827
upperneck 36.891353 0.743447 -1.778890
head 16.034858 -0.140547 -0.358275
rclavicle -0.000000 0.000000
rhumerus -43.035265 -12.268141 -72.561624
rradius 25.708937
rwrist -6.673971
rhand -4.846244 11.638828
rfingers 7.125020
rthumb 20.929717 -17.230535
lclavicle -0.000000 0.000000
lhumerus -34.618279 16.088193 67.560004
lradius 47.425383
lwrist 0.755847
lhand -5.232284 19.824965
lfingers 7.125020
lthumb 20.550533 48.709026
rfemur -35.782617 16.301087 12.448529
rtibia 24.186885
rfoot -17.008262 -23.119014
rtoes 4.136371
lfemur 5.559062 -7.611136 -26.747625
ltibia 14.240896
lfoot -17.700070 18.232792
ltoes -16.820257
3
root 9.273270 17.016600 -33.905900 1.590695 1.634016 -0.256980
lowerback -0.786824 0.485163 -2.122743
upperback -1.645025 0.621761 0.885486
thorax -1.224277 0.357504 2.071177
lowerneck -15.639304 -0.351527 -1.733264
upperneck 37.228852 0.818093 -1.875721
head 16.284974 -0.138452 -0.380857
rclavicle -0.000000 0.000000
rhumerus -43.132224 -12.754918 -71.989591
rradius 24.769658
rwrist -5.492436
rhand -4.992284 11.089054
rfingers 7.125020
rthumb 20.800205 -17.784059
lclavicle -0.000000 0.000000
lhumerus -35.371152 16.596812 66.969875
lradius 46.993391
lwrist 0.653376
lhand -5.319601 19.367617
lfingers 7.125020
lthumb 20.470082 48.261480
rfemur -35.373073 15.571474 14.050131
rtibia 25.342092
rfoot -14.700999 -21.746640
rtoes 4.250198
lfemur 8.477352 -7.292759 -26.626181
ltibia 13.772895
lfoot -16.321576 18.150543
ltoes -19.757415
4
root 9.268420 17.025800 -33.555600 1.907312 1.634016 -0.166766
lowerback -0.833703 0.701570 -0.222398
upperback -1.665540 0.927077 1.394176
thorax -1.200936 0.489460 1.564871
lowerneck -15.556713 -0.213653 -1.612294
upperneck 37.615534 1.053903 -2.039234
head 16.472058 -0.041741 -0.443071
rclavicle -0.000000 0.000000
rhumerus -42.931148 -13.731255 -70.956289
rradius 23.532984
rwrist -4.295273
rhand -4.820752 10.750710
rfingers 7.125020
rthumb 20.965515 -18.118324
lclavicle -0.000000 0.000000
lhumerus -37.988093 17.632234 66.534304
lradius 45.828786
lwrist 1.619231
lhand -5.846197 21.053740
lfingers 7.125020
lthumb 19.970461 49.992487
rfemur -33.592642 14.627142 17.547479
rtibia 27.776175
rfoot -13.022458 -19.193983
rtoes 4.688720
lfemur 5.672320 -5.786141 -24.533367
ltibia 23.189143
lfoot -13.653269 17.558793
ltoes -20.415759
5
root 9.249270 17.016300 -33.220600 2.137283 1.634016 -0.094007
lowerback -0.886734 0.918938 1.617434
upperback -1.692710 1.236134 1.888556
thorax -1.172706 0.623322 1.058592
lowerneck -15.465478 -0.080190 -1.505597
upperneck 38.009363 1.279858 -2.172467
head 16.660716 0.051721 -0.486894
rclavicle -0.000000 0.000000
rhumerus -42.733268 -14.658721 -69.954107
rradius 22.338532
rwrist -3.168557
rhand -4.639036 10.464494
rfingers 7.125020
rthumb 21.140803 -18.393154
lclavicle -0.000000 0.000000
lhumerus -40.512578 18.680100 66.069753
lradius 44.674981
lwrist 2.583174
lhand -6.344998 22.727063
lfingers 7.125020
lthumb 19.497312 51.709363
rfemur -31.846898 13.769211 20.933428
rtibia 29.733469
rfoot -11.690673 -16.875463
rtoes 4.904043
lfemur 2.747881 -4.256265 -22.485167
ltibia 32.434359
lfoot -11.106783 16.986114
ltoes -20.373924
6
root 9.246830 17.017700 -32.897400 2.030406 1.634016 -0.039245
lowerback -0.726875 1.039070 2.435328
upperback -1.736025 1.421982 2.008854
thorax -1.323529 0.701410 0.785392
lowerneck -15.380034 0.012220 -1.581908
upperneck 38.090717 1.332258 -1.862337
head 16.663568 0.101583 -0.332037
rclavicle -0.000000 0.000000
rhumerus -42.034029 -14.486330 -70.131782
rradius 23.000973
rwrist -4.311099
rhand -4.685236 10.412230
rfingers 7.125020
rthumb 21.097836 -18.438605
lclavicle -0.000000 0.000000
lhumerus -43.051068 20.597528 65.021698
lradius 42.312518
lwrist 2.954182
lhand -5.378106 22.366231
lfingers 7.125020
lthumb 20.424287 51.246810
rfemur -29.681194 13.601325 22.762787
rtibia 30.700201
rfoot -12.913966 -16.481126
rtoes 4.002643
lfemur -3.094457 -2.030192 -21.016952
ltibia 42.930725
lfoot -7.773690 18.731284
ltoes -8.505200
7
root 9.219480 17.016100 -32.563300 1.898193 1.634016 -0.000514
lowerback -0.572397 1.161342 3.245420
upperback -1.781853 1.613343 2.117346
thorax -1.469481 0.781956 0.507629
lowerneck -15.311530 0.097744 -1.678525
upperneck 38.176036 1.373681 -1.548342
head 16.667523 0.146805 -0.175181
rclavicle -0.000000 0.000000
rhumerus -41.380290 -14.285675 -70.325483
rradius 23.669869
rwrist -5.524764
rhand -4.725269 10.425294
rfingers 7.125020
rthumb 21.061000 -18.427203
lclavicle -0.000000 0.000000
lhumerus -45.474355 22.485598 63.980409
lradius 40.141025
lwrist 3.319724
lhand -4.403533 21.987075
lfingers 7.125020
lthumb 21.358694 50.765257
rfemur -27.637696 13.476760 24.464646
rtibia 31.396366
rfoot -14.111882 -16.143184
rtoes 3.076057
lfemur -8.790069 0.135502 -19.632955
ltibia 52.932286
lfoot -5.020788 20.452918
ltoes 0.470891
8
root 9.210440 16.998300 -32.235300 1.680491 1.634016 0.046349
lowerback -0.484681 1.414443 3.731546
upperback -1.744450 1.969582 1.978806
thorax -1.441101 0.953647 0.125419
lowerneck -15.549663 0.131217 -1.545556
upperneck 38.218374 1.446453 -1.621719
head 16.763576 0.180047 -0.211677
rclavicle -0.000000 0.000000
rhumerus -40.326591 -13.000342 -71.345222
rradius 25.670082
rwrist -7.647330
rhand -5.126284 10.980666
rfingers 7.125020
rthumb 20.674578 -17.928432
lclavicle -0.000000 0.000000
lhumerus -47.284356 24.108725 62.565699
lradius 36.920532
lwrist 0.901343
lhand -2.916911 21.823697
lfingers 7.125020
lthumb 22.782828 50.383941
rfemur -25.560125 13.867123 25.284175
rtibia 31.319577
rfoot -15.134149 -16.623185
rtoes 2.887726
lfemur -14.139968 1.814461 -19.362447
ltibia 56.469686
lfoot -7.146185 19.174011
ltoes -2.995677
9
root 9.216220 16.950400 -31.922700 1.567930 1.634016 0.062398
lowerback -0.396119 1.638041 4.062287
upperback -1.709128 2.273124 1.851346
thorax -1.418596 1.099785 -0.204660
lowerneck -15.767030 0.167856 -1.412532
upperneck 38.252649 1.521071 -1.694532
head 16.855117 0.214569 -0.249722
rclavicle -0.000000 0.000000
rhumerus -39.432948 -11.962552 -72.162707
rradius 27.541358
rwrist -9.437097
rhand -5.509141 11.323279
rfingers 7.125020
rthumb 20.305728 -17.620323
lclavicle -0.000000 0.000000
lhumerus -48.962443 25.632233 61.205143
lradius 34.181460
lwrist -1.338323
lhand -1.509505 21.663872
lfingers 7.125020
lthumb 24.131000 50.011763
rfemur -23.599839 14.234054 25.986708
rtibia 31.265462
rfoot -16.012264 -17.051426
rtoes 2.835800
lfemur -18.825672 2.714470 -19.194005
ltibia 58.590585
lfoot -9.019743 18.069041
ltoes -5.053090
10
root 9.215440 16.883800 -31.609400 1.499779 1.634016 0.068311
lowerback -0.305581 1.842044 4.307003
upperback -1.674720 2.542958 1.724458
thorax -1.401244 1.229469 -0.507978
lowerneck -15.978225 0.209375 -1.269768
upperneck 38.279291 1.601803 -1.778140
head 16.943485 0.251959 -0.294304
rclavicle -0.000000 0.000000
rhumerus -38.608022 -11.046480 -72.894071
rradius 29.347568
rwrist -11.037620
rhand -5.882500 11.571855
rfingers 7.125020
rthumb 19.946116 -17.394926
lclavicle -0.000000 0.000000
lhumerus -50.573813 27.107913 59.861042
lradius 31.637738
lwrist -3.539023
lhand -0.148082 21.505337
lfingers 7.125020
lthumb 25.435025 49.643587
rfemur -21.691403 14.588474 26.622754
rtibia 31.217826
rfoot -16.834557 -17.454587
rtoes 2.916794
lfemur -23.181469 3.255177 -19.099294
ltibia 59.870782
lfoot -10.808931 17.038914
ltoes -6.612426
